<?xml version="1.0" encoding="utf-8"?>
<!-- Generator: Adobe Illustrator 24.1.2, SVG Export Plug-In . SVG Version: 6.00 Build 0)  -->
<svg version="1.1" id="Layer_1" xmlns="http://www.w3.org/2000/svg" xmlns:xlink="http://www.w3.org/1999/xlink" x="0px" y="0px"
	 viewBox="0 0 283.5 135.7" style="enable-background:new 0 0 283.5 135.7;" xml:space="preserve">
<style type="text/css">
	.st0{fill:#2C2B39;}
</style>
<g>
	<path class="st0" d="M262.3,55.9h-45.7c0.7,4,2.4,7.2,5.3,9.6c2.9,2.4,6.5,3.6,11,3.6c5.3,0,9.9-1.9,13.7-5.6l12,5.6
		c-3,4.2-6.6,7.4-10.7,9.4c-4.2,2-9.1,3-14.8,3c-8.9,0-16.1-2.8-21.7-8.4c-5.6-5.6-8.4-12.6-8.4-21.1c0-8.6,2.8-15.8,8.4-21.5
		c5.6-5.7,12.6-8.6,21-8.6c8.9,0,16.2,2.9,21.8,8.6c5.6,5.7,8.4,13.3,8.4,22.6L262.3,55.9z M248.1,44.7c-0.9-3.2-2.8-5.7-5.6-7.7
		c-2.8-2-6-3-9.6-3c-4,0-7.4,1.1-10.4,3.3c-1.9,1.4-3.6,3.8-5.2,7.3H248.1z"/>
	<g>
		<path class="st0" d="M31.9,110l-1.4-3.4h-7l-1.4,3.4h-0.7l5.2-12.5h0.7l5.2,12.5H31.9z M27,98.2l-3.3,7.9h6.5L27,98.2z"/>
		<path class="st0" d="M38.1,103.7c0-3.9,2.9-6.5,6.7-6.5c2.7,0,4.3,1.5,5.2,3.1l-2.3,1.1c-0.5-1-1.7-1.8-2.9-1.8
			c-2.3,0-3.9,1.7-3.9,4.1c0,2.4,1.7,4.1,3.9,4.1c1.3,0,2.4-0.8,2.9-1.8l2.3,1.1c-0.9,1.6-2.5,3.1-5.2,3.1
			C41,110.2,38.1,107.6,38.1,103.7"/>
		<path class="st0" d="M50.7,105.5c0-2.6,1.8-4.7,4.8-4.7c3,0,4.8,2.2,4.8,4.7s-1.8,4.8-4.8,4.8C52.5,110.2,50.7,108,50.7,105.5
			 M57.9,105.5c0-1.4-0.8-2.6-2.3-2.6c-1.5,0-2.3,1.2-2.3,2.6c0,1.4,0.8,2.6,2.3,2.6C57,108.1,57.9,106.9,57.9,105.5"/>
		<path class="st0" d="M61.7,112.3l1.1-1.7c0.7,0.8,1.7,1.1,2.8,1.1c1.1,0,2.5-0.5,2.5-2.3v-0.9c-0.7,0.9-1.7,1.4-2.8,1.4
			c-2.3,0-4-1.6-4-4.6c0-3,1.7-4.6,4-4.6c1.1,0,2.1,0.5,2.8,1.4v-1.2h2.4v8.5c0,3.4-2.7,4.3-4.9,4.3
			C64.1,113.7,62.9,113.3,61.7,112.3 M68.2,106.8v-2.9c-0.4-0.6-1.3-1-2-1c-1.4,0-2.3,0.9-2.3,2.5c0,1.6,0.9,2.5,2.3,2.5
			C66.9,107.8,67.7,107.4,68.2,106.8"/>
		<path class="st0" d="M78.8,110v-5.5c0-1.3-0.7-1.7-1.7-1.7c-0.9,0-1.7,0.5-2.1,1.1v6.1h-2.4v-9.1h2.4v1.2c0.6-0.7,1.7-1.4,3.2-1.4
			c2,0,3,1.1,3,2.9v6.4H78.8z"/>
		<path class="st0" d="M83.2,98.5c0-0.8,0.6-1.4,1.4-1.4c0.8,0,1.4,0.6,1.4,1.4c0,0.8-0.6,1.4-1.4,1.4C83.8,100,83.2,99.3,83.2,98.5
			 M83.4,100.9h2.4v9.1h-2.4V100.9z"/>
		<polygon class="st0" points="87.6,110 87.6,108.2 91.6,103 87.6,103 87.6,100.9 94.9,100.9 94.9,102.6 90.7,107.9 95,107.9 
			95,110 		"/>
		<path class="st0" d="M102.2,110v-1c-0.6,0.8-1.7,1.2-2.9,1.2c-1.4,0-3.1-1-3.1-3c0-2.1,1.7-2.9,3.1-2.9c1.2,0,2.3,0.4,2.9,1.1
			v-1.1c0-0.9-0.8-1.5-2-1.5c-1,0-1.9,0.4-2.6,1.1l-0.9-1.7c1.1-1,2.5-1.4,4-1.4c2.1,0,4,0.8,4,3.4v5.9H102.2z M102.2,107.8v-1.1
			c-0.4-0.5-1.1-0.8-1.9-0.8c-0.9,0-1.7,0.5-1.7,1.4c0,0.9,0.8,1.4,1.7,1.4C101,108.6,101.8,108.3,102.2,107.8"/>
		<path class="st0" d="M112.9,110v-5.5c0-1.3-0.7-1.7-1.7-1.7c-0.9,0-1.6,0.5-2.1,1.1v6.1h-2.4v-9.1h2.4v1.2
			c0.6-0.7,1.7-1.4,3.2-1.4c2,0,3,1.1,3,2.9v6.4H112.9z"/>
		<path class="st0" d="M117.9,107.7V103h-1.5v-2.1h1.5v-2.5h2.4v2.5h1.8v2.1h-1.8v4.1c0,0.6,0.3,1,0.8,1c0.4,0,0.7-0.1,0.8-0.3
			l0.5,1.8c-0.4,0.3-1,0.6-2,0.6C118.8,110.2,117.9,109.4,117.9,107.7"/>
		<path class="st0" d="M129.3,109.9V97.4h4.9c3.9,0,6.6,2.5,6.6,6.2c0,3.8-2.7,6.3-6.6,6.3H129.3z M138.1,103.7
			c0-2.2-1.4-3.9-3.9-3.9h-2.3v7.8h2.3C136.7,107.6,138.1,105.8,138.1,103.7"/>
		<path class="st0" d="M142.3,98.5c0-0.8,0.6-1.4,1.4-1.4c0.8,0,1.4,0.6,1.4,1.4c0,0.8-0.6,1.4-1.4,1.4
			C142.9,99.9,142.3,99.3,142.3,98.5 M142.5,100.9h2.4v9.1h-2.4V100.9z"/>
		<path class="st0" d="M146.9,112.3l1.1-1.7c0.7,0.8,1.7,1.1,2.8,1.1c1.1,0,2.5-0.5,2.5-2.3v-0.9c-0.7,0.9-1.7,1.4-2.8,1.4
			c-2.3,0-4-1.6-4-4.6c0-3,1.7-4.6,4-4.6c1.1,0,2.1,0.5,2.8,1.4v-1.2h2.4v8.5c0,3.4-2.7,4.3-4.9,4.3
			C149.2,113.6,148,113.3,146.9,112.3 M153.3,106.7v-2.9c-0.4-0.6-1.3-1-2-1c-1.4,0-2.3,0.9-2.3,2.5c0,1.6,0.9,2.5,2.3,2.5
			C152,107.8,152.9,107.3,153.3,106.7"/>
		<path class="st0" d="M157.6,98.5c0-0.8,0.6-1.4,1.4-1.4c0.8,0,1.4,0.6,1.4,1.4c0,0.8-0.6,1.4-1.4,1.4
			C158.3,99.9,157.6,99.3,157.6,98.5 M157.8,100.9h2.4v9.1h-2.4V100.9z"/>
		<path class="st0" d="M162.9,107.7V103h-1.5v-2.1h1.5v-2.5h2.4v2.5h1.8v2.1h-1.8v4.1c0,0.6,0.3,1,0.8,1c0.4,0,0.7-0.1,0.8-0.3
			l0.5,1.8c-0.4,0.3-1,0.6-2,0.6C163.8,110.2,162.9,109.3,162.9,107.7"/>
		<path class="st0" d="M174,109.9v-1c-0.6,0.8-1.7,1.2-2.9,1.2c-1.4,0-3.1-1-3.1-3c0-2.1,1.7-2.9,3.1-2.9c1.2,0,2.3,0.4,2.9,1.1
			v-1.1c0-0.9-0.8-1.5-2-1.5c-1,0-1.9,0.4-2.6,1.1l-0.9-1.7c1.1-1,2.5-1.4,4-1.4c2.1,0,4,0.8,4,3.4v5.9H174z M174,107.8v-1.1
			c-0.4-0.5-1.1-0.8-1.9-0.8c-0.9,0-1.7,0.5-1.7,1.4c0,0.9,0.8,1.4,1.7,1.4C172.9,108.6,173.6,108.3,174,107.8"/>
		<rect x="178.6" y="97.4" class="st0" width="2.4" height="12.5"/>
		<path class="st0" d="M187.8,110V97.4h6.6c2.4,0,3.6,1.5,3.6,3.2c0,1.6-1,2.6-2.2,2.9c1.4,0.2,2.4,1.5,2.4,3.1
			c0,1.9-1.2,3.4-3.6,3.4H187.8z M195.3,101.1c0-0.8-0.6-1.3-1.5-1.3h-3.3v2.6h3.3C194.7,102.4,195.3,101.9,195.3,101.1
			 M195.5,106.2c0-0.8-0.6-1.4-1.6-1.4h-3.5v2.9h3.5C194.9,107.6,195.5,107.1,195.5,106.2"/>
		<path class="st0" d="M206.1,109.9v-1.1c-0.6,0.7-1.7,1.4-3.2,1.4c-2,0-2.9-1.1-2.9-2.9v-6.4h2.4v5.5c0,1.3,0.7,1.7,1.7,1.7
			c0.9,0,1.6-0.5,2.1-1v-6.1h2.4v9.1H206.1z"/>
		<path class="st0" d="M209.9,108.8l1-1.7c0.7,0.6,2,1.3,3.1,1.3c1,0,1.5-0.4,1.5-1c0-1.5-5.4-0.3-5.4-3.8c0-1.5,1.3-2.9,3.7-2.9
			c1.5,0,2.7,0.5,3.6,1.2l-1,1.7c-0.5-0.6-1.6-1.1-2.7-1.1c-0.9,0-1.4,0.4-1.4,0.9c0,1.3,5.4,0.2,5.4,3.9c0,1.7-1.4,2.9-3.9,2.9
			C212.4,110.2,210.9,109.7,209.9,108.8"/>
		<path class="st0" d="M219.2,98.5c0-0.8,0.6-1.4,1.4-1.4c0.8,0,1.4,0.6,1.4,1.4c0,0.8-0.6,1.4-1.4,1.4
			C219.9,99.9,219.2,99.3,219.2,98.5 M219.5,100.9h2.4v9.1h-2.4V100.9z"/>
		<path class="st0" d="M230.1,109.9v-5.5c0-1.3-0.7-1.7-1.7-1.7c-0.9,0-1.7,0.5-2.1,1.1v6.1H224v-9.1h2.4v1.2
			c0.6-0.7,1.7-1.4,3.2-1.4c2,0,3,1.1,3,2.9v6.4H230.1z"/>
		<path class="st0" d="M234.1,105.4c0-2.6,2-4.7,4.7-4.7c2.7,0,4.5,2,4.5,5v0.6h-6.7c0.2,1.1,1.1,2,2.6,2c0.8,0,1.8-0.3,2.4-0.9
			l1.1,1.6c-0.9,0.8-2.3,1.3-3.7,1.3C236.2,110.2,234.1,108.3,234.1,105.4 M238.8,102.6c-1.5,0-2.1,1-2.2,1.9h4.5
			C241,103.7,240.4,102.6,238.8,102.6"/>
		<path class="st0" d="M244.1,108.8l1-1.7c0.7,0.6,2,1.3,3.1,1.3c1,0,1.5-0.4,1.5-1c0-1.5-5.4-0.3-5.4-3.8c0-1.5,1.3-2.9,3.7-2.9
			c1.5,0,2.7,0.5,3.6,1.2l-1,1.7c-0.5-0.6-1.6-1.1-2.7-1.1c-0.9,0-1.4,0.4-1.4,0.9c0,1.3,5.4,0.2,5.4,3.9c0,1.7-1.4,2.9-3.9,2.9
			C246.6,110.2,245,109.7,244.1,108.8"/>
		<path class="st0" d="M252.9,108.8l1-1.7c0.7,0.6,2,1.3,3.1,1.3c1,0,1.5-0.4,1.5-1c0-1.5-5.4-0.3-5.4-3.8c0-1.5,1.3-2.9,3.7-2.9
			c1.5,0,2.7,0.5,3.6,1.2l-1,1.7c-0.5-0.6-1.6-1.1-2.7-1.1c-0.9,0-1.4,0.4-1.4,0.9c0,1.3,5.4,0.2,5.4,3.9c0,1.7-1.4,2.9-3.9,2.9
			C255.3,110.2,253.8,109.7,252.9,108.8"/>
	</g>
	<polygon class="st0" points="47.4,67.3 75.2,22.9 33.3,22.9 25,36.1 49.3,36.1 21.4,80.6 65,80.6 73.4,67.3 	"/>
	<path class="st0" d="M106,22c-16.6,0-30,13.4-30,29.8c0,16.4,13.5,29.8,30,29.8c16.6,0,30-13.4,30-29.8C136.1,35.3,122.6,22,106,22
		z M106,67.1c-8.2,0-14.2-6.4-14.2-15.3c0-8.9,6-15.3,14.2-15.3c8.2,0,14.2,6.4,14.2,15.3C120.3,60.6,114.3,67.1,106,67.1z"/>
	<path class="st0" d="M172.4,22c-5,0-9.6,1.6-13,4.4l-2,1.7v-5.1h-15.7v57.7h15.7V42l0.3-0.3c3-3.4,7.6-5.6,11.7-5.6
		c7.8,0,12.3,5.6,12.3,15.4v29.1h15.7V48.3C197.3,31.8,188,22,172.4,22z"/>
</g>
</svg>
